<svg xmlns="http://www.w3.org/2000/svg" xmlns:xlink="http://www.w3.org/1999/xlink" version="1.1" width="3367.56pt" height="2381.104pt" viewBox="0 0 3367.56 2381.104">
<defs>
<clipPath id="clip_1">
<path transform="matrix(4,0,0,-4,0,2381.104)" d="M0 595.276H841.89V0H0Z"/>
</clipPath>
<path id="font_2_48" d="M.46600343 .3639984 .7649994 .7200012H.8760071V0H.79499819V.628006L.46600343 .23699951 .13699341 .628006V0H.055999757V.7200012H.16700745L.46600343 .3639984Z"/>
<path id="font_2_67" d="M.5209961 .58000186C.55500289 .58000186 .58383688 .5681661 .60749819 .5444946 .6311696 .5208333 .6430054 .492335 .6430054 .45899964V0H.17300415C.13966878 0 .11116537 .0118306479 .0874939 .035491945 .0638326 .05916341 .052001954 .08766683 .052001954 .1210022V.33099366H.55999758V.45899964C.55999758 .46967063 .55616256 .47883607 .54849246 .48649598 .5408325 .49416606 .53166708 .4980011 .5209961 .4980011H.052001954V.58000186H.5209961M.55999758 .08200073V.24899292H.13400269V.1210022C.13400269 .110331218 .13783264 .10116068 .14549256 .0934906 .15316265 .08583069 .16233318 .08200073 .17300415 .08200073H.55999758Z"/>
<path id="font_2_73" d="M.6309967-.10699463C.6309967-.14100139 .6193288-.1698354 .59599307-.1934967 .5726674-.21716817 .5440013-.2290039 .5099945-.2290039H.147995V-.1459961H.5099945C.52066549-.1459961 .52983096-.14216106 .53749087-.13449097 .54516097-.12683106 .548996-.11766561 .548996-.10699463V0H.16200257C.12866719 0 .10016378 .0118306479 .07649231 .035491945 .052831014 .05916341 .041000368 .08766683 .041000368 .1210022V.45899964C.041000368 .492335 .052831014 .5208333 .07649231 .5444946 .10016378 .5681661 .12866719 .58000186 .16200257 .58000186H.5099945C.5440013 .58000186 .5726674 .5681661 .59599307 .5444946 .6193288 .5208333 .6309967 .492335 .6309967 .45899964V-.10699463M.16200257 .08200073H.5099945C.52066549 .08200073 .52983096 .08583069 .53749087 .0934906 .54516097 .10116068 .548996 .110331218 .548996 .1210022V.45899964C.548996 .46967063 .54516097 .47883607 .53749087 .48649598 .52983096 .49416606 .52066549 .4980011 .5099945 .4980011H.16200257C.15133159 .4980011 .14216106 .49416606 .13449097 .48649598 .12683106 .47883607 .1230011 .46967063 .1230011 .45899964V.1210022C.1230011 .110331218 .12683106 .10116068 .13449097 .0934906 .14216106 .08583069 .15133159 .08200073 .16200257 .08200073Z"/>
<path id="font_2_85" d="M.63900759 .45899964V.45100404H.55599978V.45899964C.55599978 .46967063 .55216476 .47883607 .5444946 .48649598 .5368347 .49416606 .52766928 .4980011 .5169983 .4980011H.16900635C.15833538 .4980011 .14916484 .49416606 .14149475 .48649598 .13383484 .47883607 .13000489 .46967063 .13000489 .45899964V.36999513C.13000489 .35933433 .13383484 .35016886 .14149475 .34249879 .14916484 .3348287 .15833538 .33099366 .16900635 .33099366H.5169983C.5509949 .33099366 .5798289 .31915794 .60350039 .29548646 .6271718 .27182517 .63900759 .24333191 .63900759 .21000672V.1210022C.63900759 .08766683 .6271718 .05916341 .60350039 .035491945 .5798289 .0118306479 .5509949 0 .5169983 0H.16900635C.13567098 0 .107167568 .0118306479 .083496097 .035491945 .059834798 .05916341 .04800415 .08766683 .04800415 .1210022V.1289978H.13000489V.1210022C.13000489 .110331218 .13383484 .10116068 .14149475 .0934906 .14916484 .08583069 .15833538 .08200073 .16900635 .08200073H.5169983C.52766928 .08200073 .5368347 .08583069 .5444946 .0934906 .55216476 .10116068 .55599978 .110331218 .55599978 .1210022V.21000672C.55599978 .22066753 .55216476 .22982788 .5444946 .2374878 .5368347 .24515789 .52766928 .24899292 .5169983 .24899292H.16900635C.13567098 .24899292 .107167568 .26082865 .083496097 .28450013 .059834798 .3081716 .04800415 .33666993 .04800415 .36999513V.45899964C.04800415 .492335 .059834798 .5208333 .083496097 .5444946 .107167568 .5681661 .13567098 .58000186 .16900635 .58000186H.5169983C.5509949 .58000186 .5798289 .5681661 .60350039 .5444946 .6271718 .5208333 .63900759 .492335 .63900759 .45899964Z"/>
<path id="font_2_75" d="M.052001954 0V.58000186H.13400269V0H.052001954M.052001954 .7700043H.13400269V.68800356H.052001954V.7700043Z"/>
<path id="font_2_80" d="M.5240021 .58000186C.55733749 .58000186 .58583578 .5681661 .6094971 .5444946 .6331685 .5208333 .6450043 .492335 .6450043 .45899964V0H.56300356V.45899964C.56300356 .46967063 .5591685 .47883607 .5514984 .48649598 .5438283 .49416606 .5346629 .4980011 .5240021 .4980011H.17599488C.16533406 .4980011 .15600078 .49416606 .147995 .48649598 .13999939 .47883607 .13600159 .46967063 .13600159 .45899964V0H.054000856V.58000186H.5240021Z"/>
<path id="font_2_3" d="M0 0Z"/>
<path id="font_2_70" d="M.5319977 .7700043H.6139984V0H.14500427C.11099752 0 .08215841 .0118306479 .05848694 .035491945 .03482564 .05916341 .022994996 .08766683 .022994996 .1210022V.45899964C.022994996 .492335 .03482564 .5208333 .05848694 .5444946 .08215841 .5681661 .11099752 .58000186 .14500427 .58000186H.5319977V.7700043M.14500427 .08200073H.49299623C.5036672 .08200073 .51283267 .08583069 .52049258 .0934906 .52816268 .10116068 .5319977 .110331218 .5319977 .1210022V.45899964C.5319977 .46967063 .52816268 .47883607 .52049258 .48649598 .51283267 .49416606 .5036672 .4980011 .49299623 .4980011H.14500427C.1343333 .4980011 .12516277 .49416606 .117492679 .48649598 .10983276 .47883607 .10600281 .46967063 .10600281 .45899964V.1210022C.10600281 .110331218 .10983276 .10116068 .117492679 .0934906 .12516277 .08583069 .1343333 .08200073 .14500427 .08200073Z"/>
<path id="font_2_69" d="M.17199707 .08200073H.6419983V0H.17199707C.1386617 0 .11015829 .0118306479 .08648682 .035491945 .06282552 .05916341 .050994874 .08766683 .050994874 .1210022V.45899964C.050994874 .492335 .06282552 .5208333 .08648682 .5444946 .11015829 .5681661 .1386617 .58000186 .17199707 .58000186H.6399994V.4980011H.17199707C.16133626 .4980011 .15217082 .49416606 .14450073 .48649598 .13683065 .47883607 .1329956 .46967063 .1329956 .45899964V.1210022C.1329956 .110331218 .13683065 .10116068 .14450073 .0934906 .15217082 .08583069 .16133626 .08200073 .17199707 .08200073Z"/>
<path id="font_2_81" d="M.17199707 .58000186H.5200043C.55400088 .58000186 .5828298 .5681661 .6064911 .5444946 .63016256 .5208333 .6419983 .492335 .6419983 .45899964V.1210022C.6419983 .08766683 .63016256 .05916341 .6064911 .035491945 .5828298 .0118306479 .55400088 0 .5200043 0H.17199707C.1386617 0 .11015829 .0118306479 .08648682 .035491945 .06282552 .05916341 .050994874 .08766683 .050994874 .1210022V.45899964C.050994874 .492335 .06282552 .5208333 .08648682 .5444946 .11015829 .5681661 .1386617 .58000186 .17199707 .58000186M.5200043 .4980011H.17199707C.16133626 .4980011 .15217082 .49416606 .14450073 .48649598 .13683065 .47883607 .1329956 .46967063 .1329956 .45899964V.1210022C.1329956 .110331218 .13683065 .10116068 .14450073 .0934906 .15217082 .08583069 .16133626 .08200073 .17199707 .08200073H.5200043C.5306651 .08200073 .5398305 .08583069 .5475006 .0934906 .5551707 .10116068 .55900576 .110331218 .55900576 .1210022V.45899964C.55900576 .46967063 .5551707 .47883607 .5475006 .48649598 .5398305 .49416606 .5306651 .4980011 .5200043 .4980011Z"/>
<path id="font_2_87" d="M.56199648 .58000186H.6439972V.1210022C.6439972 .08766683 .63216146 .05916341 .60849 .035491945 .5848287 .0118306479 .55599978 0 .5220032 0H.17399597C.1406606 0 .11215719 .0118306479 .08848572 .035491945 .064824428 .05916341 .052993776 .08766683 .052993776 .1210022V.58000186H.1349945V.1210022C.1349945 .110331218 .13882955 .10116068 .14649964 .0934906 .15416973 .08583069 .16333516 .08200073 .17399597 .08200073H.5220032C.532664 .08200073 .5419922 .08583069 .5499878 .0934906 .5579936 .10116068 .56199648 .110331218 .56199648 .1210022V.58000186Z"/>
<path id="font_2_86" d="M.3860016 .4980011H.1349945V.1210022C.1349945 .110331218 .13882955 .10116068 .14649964 .0934906 .15416973 .08583069 .16333516 .08200073 .17399597 .08200073H.3860016V0H.17399597C.13999939 0 .111333217 .0118306479 .08799744 .035491945 .06466166 .05916341 .052993776 .08766683 .052993776 .1210022V.7700043H.1349945V.58000186H.3860016V.4980011Z"/>
<clipPath id="clip_3">
<path transform="matrix(4,0,0,-4,0,2381.104)" d="M0 595.276H841.89V0H0Z"/>
</clipPath>
<path id="font_4_41" d="M1.0424957 .7230072 .81799319 0H.6965027L.5384979 .4940033C.5341644 .5059967 .5301666 .5206604 .5265045 .5379944 .52450057 .5296631 .5224965 .52183029 .52049258 .51449587 .5184987 .50716146 .5163371 .5003306 .51400759 .4940033L.35450746 0H.23249817L.0084991459 .7230072H.1210022C.13267009 .7230072 .14242046 .72025558 .1502533 .7147522 .15808614 .70924887 .16333516 .70183309 .16600037 .6925049L.28900147 .2599945C.29166667 .2493337 .2942505 .23775228 .29675294 .22525025 .29925538 .21274822 .3018392 .19966634 .3045044 .18600464 .3071696 .20000203 .31008403 .21316529 .31324769 .22549439 .31641136 .23783367 .31982932 .2493337 .3235016 .2599945L.46549989 .6925049C.46816508 .7001648 .4734141 .7071635 .48124696 .713501 .4890798 .71983847 .49866233 .7230072 .5099945 .7230072H.5494995C.5611674 .7230072 .5706685 .72016909 .5780029 .7144928 .58533737 .7088267 .5908356 .7014974 .5944977 .6925049L.7360077 .2599945C.7430064 .2393341 .7493388 .21550496 .7550049 .18850708 .7593384 .21483357 .76417037 .23866272 .76950076 .2599945L.89250186 .6925049C.89449569 .7008362 .89957687 .70800277 .90774539 .7140045 .9159139 .7200063 .92566427 .7230072 .93699648 .7230072H1.0424957Z"/>
<path id="font_4_3" d="M.4624939 .272995 .37449647 .513504C.37016297 .52416488 .36566163 .53682968 .36099244 .5514984 .3563334 .5661672 .3516693 .58200076 .34700013 .598999 .34266664 .58200076 .33816529 .5660858 .3334961 .5512543 .32883708 .5364227 .32434083 .5235036 .32000733 .51249697L.23249817 .272995H.4624939M.69999697 0H.59599307C.5843353 0 .5748393 .0029144288 .5675049 .008743286 .5601705 .014582316 .5546672 .021835328 .5509949 .03050232L.49699403 .17799378H.1974945L.14349365 .03050232C.14082845 .022832236 .13566081 .015828452 .12799073 .009490967 .12033081 .0031636556 .110834758 0 .09950256 0H-.005493164L.27900697 .7230072H.41600038L.69999697 0Z"/>
<path id="font_4_25" d="M.69000247 .7230072V0H.6210022C.61033126 0 .6014099 .0017496744 .5942383 .0052490236 .58707687 .008748372 .5801646 .014663696 .5735016 .022994996L.19599915 .5050049C.19800313 .4830017 .19900513 .46266685 .19900513 .44400025V0H.08050537V.7230072H.15100098C.15666707 .7230072 .1615804 .72275289 .16574097 .72224429 .1699117 .7217458 .1735789 .72074386 .17674256 .7192383 .17991638 .7177429 .18300374 .7155762 .18600464 .71273806 .18900554 .7099101 .19233704 .70616659 .19599915 .70150759L.57499697 .21749878C.57400009 .22916667 .5731659 .2406667 .5724945 .2519989 .5718333 .2633311 .5715027 .27382914 .5715027 .28349305V.7230072H.69000247Z"/>
<path id="font_4_36" d="M.585495 .61250308H.36749269V0H.23300171V.61250308H.01499939V.7230072H.585495V.61250308Z"/>
<path id="font_4_11" d="M.21549988 .6159973V.41549684H.46850587V.31199647H.21549988V.10749817H.536499V0H.08050537V.7230072H.536499V.6159973H.21549988Z"/>
<path id="font_4_33" d="M.29899598 .3789978C.32433573 .3789978 .3464203 .38216148 .36524964 .38848878 .38407899 .39482627 .3995768 .4035797 .41174317 .41474916 .42390953 .42591859 .43299357 .4391683 .43899537 .4544983 .44499717 .46982829 .44799806 .48666383 .44799806 .5050049 .44799806 .5416667 .4359131 .5698293 .41174317 .5894928 .3875834 .60916647 .35066734 .6190033 .30099488 .6190033H.21499634V.3789978H.29899598M.6450043 0H.52349856C.5004985 0 .48383079 .0089976 .47349549 .026992798L.3215027 .25849916C.31583659 .26716615 .30958558 .2733307 .30274964 .2769928 .2959137 .28066508 .28583274 .28250123 .2725067 .28250123H.21499634V0H.08050537V.7230072H.30099488C.34999595 .7230072 .39207969 .71792098 .4272461 .7077484 .4624125 .69758608 .49124656 .68333438 .51374819 .6649933 .5362498 .6466624 .552831 .62474569 .5634918 .59924319 .5741628 .5737508 .5794983 .54566958 .5794983 .5149994 .5794983 .49066673 .5759125 .46766664 .56874087 .44599916 .5615794 .42433167 .5512492 .4046631 .53775027 .3869934 .5242513 .3693339 .5075836 .35383607 .4877472 .34049989 .46791078 .3271637 .44532777 .31666566 .41999818 .30900575 .42866517 .30400086 .43666587 .29808045 .44400025 .2912445 .45133464 .28441874 .45800273 .27633668 .46400453 .2669983L.6450043 0Z"/>
</defs>
<g id="layer_1" data-name="Calque 1">
<g clip-path="url(#clip_1)">
<path transform="matrix(4,0,0,-4,1888.1836,671.40518)" d="M0 0H-61.479V37.295C-61.479 41.658-57.946 45.214-53.584 45.214H-7.919C-3.556 45.214 0 41.658 0 37.295ZM74.875-27.053C72.243-11.452 58.753 0 42.891 0H17.64V37.295C17.64 51.379 6.164 62.831-7.919 62.831H-53.584C-67.667 62.831-79.119 51.379-79.119 37.295V0H-106.314C-122.152 0-135.667-11.452-138.299-27.053L-165.09-187.188H-104.346C-109.728-184.414-115.3-181.332-120.896-177.989-127.724-173.934-133.96-169.263-139.46-164.095-145.317-158.57-149.608-152.145-152.24-144.961-154.966-137.516-155.109-129.028-152.619-119.781-148.091-105.224-140.693-92.752-130.569-82.462-120.706-72.457-109.61-63.992-97.613-57.354-85.805-50.81-74.448-45.641-63.898-42.013-53.465-38.41-45.546-35.991-39.69-34.64-37.817-34.071-35.683-33.929-33.336-34.284L-32.625-34.426C-27.646-35.754-24.113-39.026-22.406-43.91L-22.311-44.171C-21.149-48.036-20.959-53.94-26.531-60.056L-26.863-60.412C-29.068-62.499-31.771-63.66-34.664-63.803-37.698-63.945-40.591-62.902-43.033-60.744L-43.294-60.507C-43.46-60.341-43.626-60.175-43.792-59.985-48.605-61.479-54.39-63.518-61.076-66.055-69.92-69.398-79.261-73.927-88.864-79.451-98.253-84.881-106.836-91.614-114.375-99.486-121.678-107.073-126.965-116.106-130.119-126.325-131.589-131.707-131.162-136.378-128.815-140.456-126.088-145.103-121.56-149.584-115.3-153.781-108.495-158.333-100.292-163.051-90.903-167.77-83.719-171.397-77.199-175.096-71.485-178.723-59.203-172.962-50.407-169.168-44.622-167.177-44.266-167.058-43.934-166.94-43.578-166.845-42.18-162.364-40.401-158.238-38.362-154.492-38.908-150.13-39.216-145.743-39.216-141.333-39.216-81.988 9.081-33.715 68.426-33.715 70.963-33.715 73.5-33.834 76.037-34Z" fill="#0a854a"/>
<path transform="matrix(4,0,0,-4,2274.746,1299.9956)" d="M0 0C-2.371-.498-4.481-1.754-6.093-3.699-9.531-8.014-13.562-12.519-18.09-17.118-22.619-21.694-26.863-25.678-30.752-28.902-31.249-29.329-31.724-29.708-32.15-30.04H-33.573C-33.549-29.637-33.502-29.21-33.454-28.736-33.004-24.279-32.15-19.442-30.894-14.368-29.637-9.152-28.428-4.623-27.314-.877-25.298 6.093-24.042 11.238-23.496 14.866-22.761 19.916-23.733 24.042-26.413 27.124-29.163 30.277-32.98 31.795-37.177 31.392-40.354 31.083-43.626 29.945-47.088 27.906-49.079 26.626-51.071 25.156-53.086 23.425-54.39 25.583-56.334 27.195-58.776 28.191L-59.108 28.309C-62.096 29.305-65.131 29.163-67.881 27.906-70.655 26.626-72.718 24.421-73.927 21.41-77.815 11.12-81.206 .972-84.003-8.749-86.92-11.997-90.571-15.648-94.839-19.655-99.557-24.065-103.635-27.551-107.002-30.04H-117.031C-113.403-26.982-109.515-23.473-105.389-19.584-99.486-13.965-94.056-8.227-89.219-2.466-84.027 3.722-80.589 9.104-78.764 13.965L-78.669 14.25C-76.582 20.841-78.266 25.464-80.044 28.167L-80.305 28.546C-82.367 31.226-84.881 32.98-87.726 33.786-89.931 34.403-91.519 34.664-92.705 34.664-99.889 34.853-107.523 31.89-115.348 25.867-120.493 21.884-125.187 17-129.407 11.262-129.479 12.779-129.55 14.273-129.55 15.814-129.55 71.769-84.169 117.126-28.215 117.126-25.298 117.126-22.406 117.007-19.537 116.746Z" fill="#fec429"/>
</g>
<use data-text="M" xlink:href="#font_2_48" transform="matrix(56.1456,0,0,-56.1456,1710.084,1724.1664)" fill="#231f20"/>
<use data-text="a" xlink:href="#font_2_67" transform="matrix(56.1456,0,0,-56.1456,1767.6893,1724.1664)" fill="#231f20"/>
<use data-text="g" xlink:href="#font_2_73" transform="matrix(56.1456,0,0,-56.1456,1812.1566,1724.1664)" fill="#231f20"/>
<use data-text="a" xlink:href="#font_2_67" transform="matrix(56.1456,0,0,-56.1456,1855.1586,1724.1664)" fill="#231f20"/>
<use data-text="s" xlink:href="#font_2_85" transform="matrix(56.1456,0,0,-56.1456,1898.5086,1724.1664)" fill="#231f20"/>
<use data-text="i" xlink:href="#font_2_75" transform="matrix(56.1456,0,0,-56.1456,1942.5267,1724.1664)" fill="#231f20"/>
<use data-text="n" xlink:href="#font_2_80" transform="matrix(56.1456,0,0,-56.1456,1958.8651,1724.1664)" fill="#231f20"/>
<use data-text=" " xlink:href="#font_2_3" transform="matrix(56.1456,0,0,-56.1456,2003.4447,1724.1664)" fill="#231f20"/>
<use data-text="d" xlink:href="#font_2_70" transform="matrix(56.1456,0,0,-56.1456,2024.2186,1724.1664)" fill="#231f20"/>
<use data-text="i" xlink:href="#font_2_75" transform="matrix(56.1456,0,0,-56.1456,2067.17,1724.1664)" fill="#231f20"/>
<use data-text="s" xlink:href="#font_2_85" transform="matrix(56.1456,0,0,-56.1456,2084.3507,1724.1664)" fill="#231f20"/>
<use data-text="c" xlink:href="#font_2_69" transform="matrix(56.1456,0,0,-56.1456,2127.302,1724.1664)" fill="#231f20"/>
<use data-text="o" xlink:href="#font_2_81" transform="matrix(56.1456,0,0,-56.1456,2171.8255,1724.1664)" fill="#231f20"/>
<use data-text="u" xlink:href="#font_2_87" transform="matrix(56.1456,0,0,-56.1456,2214.8892,1724.1664)" fill="#231f20"/>
<use data-text="n" xlink:href="#font_2_80" transform="matrix(56.1456,0,0,-56.1456,2259.6934,1724.1664)" fill="#231f20"/>
<use data-text="t" xlink:href="#font_2_86" transform="matrix(56.1456,0,0,-56.1456,2304.273,1724.1664)" fill="#231f20"/>
<g clip-path="url(#clip_3)">
<path transform="matrix(4,0,0,-4,2052.3746,944.30239)" d="M0 0-6.482-16.413H-24.275L-10.758-27.723-16.137-45.377-.69-35.171 15.034-45.377 10.068-26.989 24.551-16.413 5.655-16.275Z" fill="#0a854a"/>
<path transform="matrix(4,0,0,-4,1606.228,1655.8303)" d="M0 0C-5.501-9.768-13.135-18.778-22.903-27.005-32.672-35.233-43.365-42.322-54.959-48.226-66.553-54.129-77.791-58.515-88.65-61.361-99.865-64.277-109.254-65.296-116.77-64.395-124.286-63.494-128.957-60.863-130.735-56.524-132.252-52.635-130.925-47.396-126.823-40.804-120.824-31.747-111.269-21.979-98.134-11.499-84.999-1.02-70.062 9.318-53.323 19.537-36.608 29.756-19.94 38.931-3.319 47.087 2.158 41.942 5.335 36.323 6.236 30.254 7.587 19.845 5.501 9.768 0 0M47.775 83.909C51.45 90.12 55.362 95.052 59.511 98.727 63.661 102.402 67.312 104.702 70.465 105.698 65.652 98.134 57.093 88.698 44.74 77.388 45.641 79.783 46.661 81.964 47.775 83.909M169.998 83.292C168.149 83.411 166.703 82.818 165.66 81.538 162.079 77.056 157.93 72.433 153.259 67.691 148.589 62.925 144.226 58.871 140.172 55.504 136.141 52.138 133.225 50.288 131.423 50.004 130.83 49.933 130.356 49.933 130.024 50.051 129.668 50.17 129.431 50.288 129.289 50.383 129.147 50.502 129.052 50.596 129.052 50.668L128.957 50.786C127.677 52.73 127.274 56.073 127.771 60.839 128.246 65.581 129.147 70.631 130.474 75.989 131.778 81.348 132.988 85.924 134.126 89.741 136.07 96.403 137.279 101.383 137.753 104.678 138.251 107.974 137.753 110.487 136.26 112.194 134.742 113.925 132.845 114.66 130.522 114.447 128.198 114.209 125.78 113.356 123.219 111.862 117.695 108.353 111.957 102.687 106.053 94.91 107.168 97.968 108.329 101.074 109.515 104.228 110.06 105.721 109.989 107.191 109.349 108.614 108.733 110.037 107.666 111.032 106.148 111.625 104.583 112.17 103.113 112.099 101.715 111.459 100.339 110.843 99.344 109.776 98.751 108.258 94.791 97.779 91.401 87.631 88.579 77.791 88.532 77.625 88.484 77.459 88.437 77.293 85.284 73.69 81.253 69.588 76.345 64.988 69.209 58.278 63.423 53.631 59.013 51 56.595 49.672 54.011 48.605 51.189 47.87 48.392 47.111 45.76 47.23 43.294 48.202 42.843 48.415 42.464 48.818 42.156 49.387 41.871 49.933 41.611 50.478 41.373 51 40.71 53.252 40.449 55.955 40.591 59.084 41.041 59.25 41.492 59.511 41.942 59.867 46.661 63.613 51.9 68.213 57.662 73.69 63.423 79.143 68.663 84.691 73.381 90.31 78.1 95.929 81.229 100.814 82.794 105.01 83.932 108.519 83.695 111.483 82.13 113.878 80.85 115.537 79.427 116.58 77.815 117.031 76.203 117.481 75.017 117.695 74.282 117.695 68.426 117.837 62.143 115.324 55.41 110.131 48.676 104.915 42.796 98.087 37.793 89.623 35.256 85.213 33.241 80.186 31.7 74.591 30.467 74.211 29.187 73.784 27.788 73.31 21.789 71.248 12.021 67.004-1.517 60.578-2.347 61.171-3.153 61.74-3.983 62.262-9.602 65.842-15.957 69.446-23.069 73.026-32.719 77.91-41.065 82.699-48.107 87.394-55.149 92.112-60.246 97.21-63.447 102.663-66.624 108.14-67.241 114.423-65.296 121.536-61.835 132.679-56.145 142.424-48.154 150.722-40.188 159.044-31.249 166.062-21.339 171.777-11.404 177.514-1.873 182.114 7.303 185.599 16.454 189.061 23.923 191.598 29.708 193.163 29.851 191.906 30.396 190.768 31.392 189.796 32.648 188.682 34.047 188.16 35.541 188.231 37.035 188.302 38.386 188.895 39.571 190.033 42.559 193.329 43.555 196.719 42.488 200.252 41.445 203.239 39.382 205.136 36.323 205.966 34.758 206.203 33.431 206.108 32.387 205.753 26.768 204.472 18.825 202.054 8.536 198.497-1.755 194.941-12.685 189.962-24.255 183.56-35.825 177.159-46.352 169.145-55.86 159.495-65.367 149.821-72.22 138.275-76.392 124.784-78.574 116.699-78.503 109.515-76.179 103.185-73.856 96.854-70.109 91.235-64.893 86.327-59.701 81.443-53.845 77.056-47.372 73.192-40.899 69.351-34.592 65.889-28.452 62.807-22.998 60.057-18.019 57.354-13.538 54.722-30.443 46.281-47.182 36.892-63.708 26.555-80.257 16.217-95.005 5.785-107.95-4.766-120.896-15.34-130.403-25.274-136.473-34.64-142.685-44.456-144.368-53.086-141.523-60.578-139.508-65.747-135.927-69.659-130.806-72.314-125.685-74.97-119.212-76.298-111.435-76.298-103.943-76.298-95.384-75.017-85.734-72.48-73.524-69.327-61.076-64.443-48.391-57.828-35.707-51.189-24.065-43.223-13.467-33.905-2.893-24.587 5.335-14.344 11.167-3.201 17 7.943 19.181 19.655 17.687 31.937 16.549 39.287 13.23 46.092 7.682 52.375 16.952 56.808 24.184 60.294 29.424 62.831 28.855 57.211 29.21 52.114 30.491 47.538 31.463 44.598 32.696 42.369 34.189 40.852 35.683 39.311 37.153 38.291 38.576 37.769 41.255 36.489 44.219 35.849 47.443 35.849 55.291 36.157 63.163 39.477 71.01 45.855 75.681 49.624 79.665 53.252 82.936 56.69 82.391 54.461 81.846 52.256 81.348 50.099 81.348 49.956 81.301 49.838 81.229 49.767 80.945 48.202 81.182 46.756 81.964 45.451 82.747 44.147 83.932 43.27 85.497 42.82 87.157 42.511 88.603 42.749 89.883 43.555 91.14 44.337 92.017 45.499 92.468 47.087V47.301C92.539 47.372 92.563 47.443 92.563 47.538 94.222 53.513 98.277 61.859 104.749 72.575 111.222 83.268 117.837 91.922 124.571 98.49 124.049 96.546 123.527 94.673 123.006 92.894 119.71 81.727 117.505 71.935 116.438 63.471 115.348 55.006 116.486 48.415 119.852 43.721 120.753 42.44 122.129 41.231 123.954 40.117 125.78 39.002 128.246 38.433 131.304 38.433H131.541C135.121 38.647 139.318 40.543 144.107 44.1 148.897 47.656 154.611 53.536 161.297 61.74 167.936 69.92 171.516 75.539 172.014 78.574 172.488 81.609 171.824 83.174 169.998 83.292" fill="#0a854a"/>
</g>
<use data-text="W" xlink:href="#font_4_41" transform="matrix(130.584,0,0,-130.584,1691.1172,1655.4652)" fill="#0a874b"/>
<use data-text="A" xlink:href="#font_4_3" transform="matrix(130.584,0,0,-130.584,1822.1582,1655.4652)" fill="#0a874b"/>
<use data-text="N" xlink:href="#font_4_25" transform="matrix(130.584,0,0,-130.584,1912.7835,1655.4652)" fill="#0a874b"/>
<use data-text="T" xlink:href="#font_4_36" transform="matrix(130.584,0,0,-130.584,2013.3331,1655.4652)" fill="#0a874b"/>
<use data-text="E" xlink:href="#font_4_11" transform="matrix(130.584,0,0,-130.584,2091.6837,1655.4652)" fill="#0a874b"/>
<use data-text="R" xlink:href="#font_4_33" transform="matrix(130.584,0,0,-130.584,2166.7694,1655.4652)" fill="#0a874b"/>
<use data-text="E" xlink:href="#font_4_11" transform="matrix(130.584,0,0,-130.584,2250.7349,1655.4652)" fill="#0a874b"/>
</g>
</svg>
